<svg xmlns="http://www.w3.org/2000/svg" width="31" height="40" viewBox="0 0 31 40" preserveAspectRatio="xMidYMid meet">
  <rect width="31" height="40" fill="#f5f5f5"/>
  <ellipse cx="15.5" cy="10.4" rx="4.15" ry="5.35" fill="#151515"/>
  <path d="M12.15 17.4h6.7v4.65h-6.7z" fill="#151515"/>
  <path d="M3.9 40c.58-9.7 3.58-15.92 8.98-18.64l2.62 7.75 2.62-7.75C23.52 24.08 26.52 30.3 27.1 40H3.9Z" fill="#0a0a0a"/>
  <path d="M12.85 22.35 15.5 29.1l2.65-6.75-1.05 17.65h-3.2l-1.05-17.65Z" fill="#ffffff"/>
  <path d="M14.23 23.25h2.54l.52 3.05-1.79 2.05-1.79-2.05.52-3.05Z" fill="#b20d18"/>
  <path d="M14.35 28.3h2.3L17.78 40h-4.56l1.13-11.7Z" fill="#b20d18"/>
  <path d="M5.7 40c.35-6.05 1.62-10.98 3.8-14.8l3.35-2.85L13.9 40H5.7Z" fill="#111111"/>
  <path d="M25.3 40c-.35-6.05-1.62-10.98-3.8-14.8l-3.35-2.85L17.1 40h8.2Z" fill="#111111"/>
</svg>
